M48
;DRILL file {Pcbnew (2013-07-07 BZR 4022)-stable} date 2/19/2015 7:58:13 AM
;FORMAT={-:-/ absolute / inch / decimal}
FMAT,2
INCH,TZ
T1C0.025
T2C0.032
T3C0.032
T4C0.039
T5C0.040
T6C0.041
T7C0.059
T8C0.120
T9C0.120
%
G90
G05
M72
T1
X2.45Y-4.1
X2.45Y-4.3
X2.45Y-4.55
X2.45Y-4.85
X2.45Y-5.05
X2.85Y-5.475
X2.85Y-5.625
X2.9875Y-4.05
X3.025Y-5.45
X3.075Y-4.05
X3.425Y-3.1
X3.4625Y-2.9125
X3.5Y-2.975
X3.55Y-3.1
X3.65Y-4.4
X3.7Y-4.1
X3.7Y-4.35
X3.7Y-4.45
X3.7Y-4.575
X3.7Y-4.675
X3.7Y-4.875
X3.7Y-4.975
X3.7Y-5.075
X3.7Y-5.175
X3.7Y-5.4
X3.9Y-3.9
X3.9Y-4.1
X3.9Y-4.2
X3.9Y-4.3
X3.9Y-4.45
X4.125Y-2.55
X4.1875Y-3.25
X4.1875Y-3.725
X4.1875Y-4.45
X4.2Y-5.075
X4.325Y-4.45
X4.325Y-5.15
X4.4Y-4.125
X4.4Y-5.225
X4.425Y-4.45
X4.45Y-5.225
X4.5375Y-3.7
X4.55Y-4.075
X4.55Y-4.275
X4.55Y-4.4
X4.6Y-4.8
X4.6Y-5.15
X4.6375Y-4.6625
X4.675Y-3.5625
X4.675Y-4.525
X4.675Y-5.35
X4.7Y-3.1
X4.7Y-3.25
X4.7125Y-4.3875
X4.725Y-4.1
X4.8Y-3.475
X4.8125Y-4.2375
X4.8375Y-3.5375
X4.875Y-4.95
X4.9Y-3.725
X4.9Y-3.8
X5.0625Y-3.0875
X5.15Y-3.375
X5.15Y-4.45
X5.2Y-4.225
X5.225Y-3.4
X5.275Y-3.4
X5.275Y-4.875
X5.2875Y-5.0875
X5.2875Y-5.2875
X5.3125Y-4.5625
X5.325Y-3.45
X5.3375Y-5.2125
X5.35Y-3.3
X5.375Y-3.8
X5.3875Y-4.
X5.4125Y-4.1
X5.4125Y-4.2
X5.4125Y-4.3
X5.4125Y-4.425
X5.4125Y-4.525
X5.425Y-3.6
X5.425Y-5.2875
X5.45Y-2.7
X5.4625Y-4.4
X5.475Y-4.
X5.4875Y-4.3
X5.5Y-5.325
X5.5125Y-2.3125
X5.5125Y-4.2
X5.525Y-3.8
X5.525Y-3.9
X5.5375Y-4.1
X5.575Y-5.3625
X5.7875Y-4.1875
X5.8Y-3.075
X5.8Y-4.1
X5.825Y-4.15
X5.85Y-2.95
X5.85Y-5.05
X5.9875Y-3.55
X5.9875Y-3.75
X5.9875Y-3.85
X5.9875Y-5.
X5.9875Y-5.275
X6.025Y-4.05
X6.0625Y-4.35
X6.0875Y-4.1375
X6.125Y-5.35
X6.1375Y-4.8
X6.1375Y-5.
X6.1375Y-5.275
X6.175Y-4.9
X6.1875Y-3.55
X6.1875Y-3.7375
X6.1875Y-4.
X6.1875Y-4.6
X6.2Y-3.5
X6.225Y-4.7
X6.2375Y-5.1875
X6.25Y-4.5
X6.3375Y-4.875
X6.35Y-3.45
X6.35Y-3.55
X6.35Y-4.
X6.35Y-4.8
X6.425Y-4.8
X6.425Y-4.95
X6.55Y-2.65
X6.6Y-5.175
X6.6Y-5.275
X6.625Y-4.125
X6.8Y-4.6
X6.9375Y-4.1
X6.95Y-4.6
X6.975Y-4.15
X7.0125Y-4.25
X7.0375Y-4.6125
X7.0875Y-3.0125
X7.1Y-3.1
X7.1125Y-5.5875
X7.15Y-5.35
X7.15Y-5.45
X7.1875Y-5.5875
X7.2Y-4.225
X7.25Y-4.
X7.25Y-4.65
X7.3875Y-3.2625
X7.425Y-2.85
X7.525Y-2.85
X7.575Y-5.55
X7.6Y-3.95
X7.6125Y-4.1
X7.6125Y-4.2
X7.6125Y-4.3
X7.6125Y-4.4
X7.6125Y-4.5
X7.6125Y-4.6
X7.6125Y-4.7
X7.6125Y-4.8
X7.6125Y-4.9
X7.6125Y-5.
X7.6125Y-5.1
X7.6125Y-5.2
X7.6125Y-5.3
X7.6125Y-5.4
X7.625Y-2.85
X7.625Y-5.5
X7.725Y-3.95
X7.725Y-4.1
X7.725Y-4.2
X7.725Y-4.3
X7.725Y-4.4
X7.725Y-4.5
X7.725Y-4.6
X7.725Y-4.7
X7.725Y-4.8
X7.725Y-4.9
X7.725Y-5.
X7.725Y-5.1
X7.725Y-5.2
X7.725Y-5.3
X7.725Y-5.4
X7.85Y-3.85
X7.9Y-3.35
X8.Y-4.1
X8.Y-4.2
X8.Y-4.3
X8.Y-4.4
X8.Y-4.5
X8.Y-4.6
X8.Y-4.7
X8.Y-4.8
X8.Y-4.9
X8.Y-5.
X8.Y-5.1
X8.Y-5.2
X8.Y-5.3
X8.Y-5.4
X8.Y-5.5
X8.05Y-3.35
X8.05Y-3.65
X8.15Y-3.5
X8.25Y-3.95
X8.425Y-3.4
T2
X3.2Y-3.4106
X3.2Y-3.4894
T3
X2.5Y-5.2
X2.5Y-5.3
X2.5Y-5.4
X2.5Y-5.5
X2.5Y-5.6
X2.5Y-5.7
X2.6Y-2.3
X2.6Y-2.4
X2.6Y-2.5
X2.6Y-2.6
X2.6Y-2.7
X2.6Y-2.8
X2.6Y-2.9
X2.6Y-3.
X2.6Y-3.2
X2.7Y-3.2
X2.7Y-3.7
X2.7Y-3.8
X2.7Y-3.9
X2.7Y-4.
X2.7Y-4.1
X2.7Y-4.2
X2.7Y-4.3
X2.7Y-4.4
X2.7Y-4.5
X2.7Y-4.6
X2.7Y-4.7
X2.7Y-4.8
X2.7Y-4.9
X2.7Y-5.
X2.7Y-5.1
X2.7Y-5.2
X2.7Y-5.3
X2.7Y-5.4
X2.7Y-5.5
X2.7Y-5.6
X2.7Y-5.8
X2.8Y-3.2
X2.9Y-2.3
X2.9Y-2.4
X2.9Y-2.5
X2.9Y-2.6
X2.9Y-2.7
X2.9Y-2.8
X2.9Y-2.9
X2.9Y-3.
X2.9Y-5.8
X3.Y-2.4
X3.Y-2.6
X3.Y-2.8
X3.Y-3.
X3.1Y-2.4
X3.1Y-2.6
X3.1Y-2.8
X3.1Y-3.
X3.2Y-2.4
X3.2Y-2.6
X3.2Y-2.8
X3.2Y-3.
X3.3Y-3.7
X3.3Y-3.8
X3.3Y-3.9
X3.3Y-4.
X3.3Y-4.1
X3.3Y-4.2
X3.3Y-4.3
X3.3Y-4.4
X3.3Y-4.5
X3.3Y-4.6
X3.3Y-4.7
X3.3Y-4.8
X3.3Y-4.9
X3.3Y-5.
X3.3Y-5.1
X3.3Y-5.2
X3.3Y-5.3
X3.3Y-5.4
X3.3Y-5.5
X3.3Y-5.6
X3.3625Y-2.4
X3.3625Y-2.5
X3.3625Y-2.6
X3.3625Y-2.7
X3.3625Y-2.8
X3.3625Y-2.9
X3.3625Y-3.
X3.3625Y-3.2
X3.5Y-3.7
X3.5Y-3.8
X3.5Y-3.9
X3.5Y-4.
X3.5Y-4.1
X3.5Y-4.2
X3.5Y-4.3
X3.5Y-4.4
X3.5Y-4.5
X3.5Y-4.6
X3.5Y-4.7
X3.5Y-4.8
X3.5Y-4.9
X3.5Y-5.
X3.5Y-5.1
X3.5Y-5.2
X3.5Y-5.3
X3.5Y-5.4
X3.5Y-5.5
X3.5Y-5.6
X3.5Y-5.8
X3.5625Y-3.2
X3.6625Y-2.4
X3.6625Y-2.5
X3.6625Y-2.6
X3.6625Y-2.7
X3.6625Y-2.8
X3.6625Y-2.9
X3.6625Y-3.
X3.7Y-5.8
X3.875Y-2.4
X3.875Y-2.5
X3.875Y-2.6
X3.875Y-2.7
X3.875Y-2.8
X3.875Y-2.9
X3.875Y-3.
X3.875Y-3.2
X4.075Y-3.2
X4.1Y-3.7
X4.1Y-3.8
X4.1Y-3.9
X4.1Y-4.
X4.1Y-4.1
X4.1Y-4.2
X4.1Y-4.3
X4.1Y-4.4
X4.1Y-4.5
X4.1Y-4.6
X4.1Y-4.7
X4.1Y-4.8
X4.1Y-4.9
X4.1Y-5.
X4.1Y-5.1
X4.1Y-5.2
X4.1Y-5.3
X4.1Y-5.4
X4.1Y-5.5
X4.1Y-5.6
X4.175Y-2.4
X4.175Y-2.5
X4.175Y-2.6
X4.175Y-2.7
X4.175Y-2.8
X4.175Y-2.9
X4.175Y-3.
X4.3Y-4.
X4.3Y-4.1
X4.3Y-4.2
X4.3Y-4.3
X4.3Y-4.4
X4.3Y-4.5
X4.3Y-4.6
X4.3Y-4.7
X4.3Y-4.8
X4.3Y-4.9
X4.3Y-5.
X4.3Y-5.1
X4.3Y-5.2
X4.3Y-5.3
X4.3875Y-2.4
X4.3875Y-2.5
X4.3875Y-2.6
X4.3875Y-2.7
X4.3875Y-2.8
X4.3875Y-2.9
X4.3875Y-3.
X4.3875Y-3.2
X4.4Y-5.5
X4.5875Y-3.2
X4.6Y-5.5
X4.6875Y-2.4
X4.6875Y-2.5
X4.6875Y-2.6
X4.6875Y-2.7
X4.6875Y-2.8
X4.6875Y-2.9
X4.6875Y-3.
X4.85Y-2.4
X4.85Y-2.5
X4.85Y-2.6
X4.85Y-2.7
X4.85Y-2.8
X4.85Y-2.9
X4.85Y-3.
X4.85Y-3.2
X4.9Y-4.
X4.9Y-4.1
X4.9Y-4.2
X4.9Y-4.3
X4.9Y-4.4
X4.9Y-4.5
X4.9Y-4.6
X4.9Y-4.7
X4.9Y-4.8
X4.9Y-4.9
X4.9Y-5.
X4.9Y-5.1
X4.9Y-5.2
X4.9Y-5.3
X5.05Y-3.2
X5.1Y-3.4
X5.1Y-3.5
X5.1Y-3.6
X5.1Y-3.7
X5.1Y-3.8
X5.1Y-3.9
X5.1Y-4.
X5.1Y-4.1
X5.1Y-4.2
X5.1Y-4.3
X5.1Y-4.4
X5.1Y-4.5
X5.1Y-4.6
X5.1Y-4.7
X5.1Y-4.8
X5.1Y-4.9
X5.1Y-5.
X5.1Y-5.1
X5.1Y-5.2
X5.1Y-5.3
X5.1Y-5.5
X5.15Y-2.4
X5.15Y-2.5
X5.15Y-2.6
X5.15Y-2.7
X5.15Y-2.8
X5.15Y-2.9
X5.15Y-3.
X5.3Y-2.4
X5.3Y-2.5
X5.3Y-2.6
X5.3Y-2.7
X5.3Y-2.8
X5.3Y-2.9
X5.3Y-3.
X5.3Y-3.2
X5.3Y-5.5
X5.5Y-3.2
X5.6Y-2.4
X5.6Y-2.5
X5.6Y-2.6
X5.6Y-2.7
X5.6Y-2.8
X5.6Y-2.9
X5.6Y-3.
X5.7Y-3.4
X5.7Y-3.5
X5.7Y-3.6
X5.7Y-3.7
X5.7Y-3.8
X5.7Y-3.9
X5.7Y-4.
X5.7Y-4.1
X5.7Y-4.2
X5.7Y-4.3
X5.7Y-4.4
X5.7Y-4.5
X5.7Y-4.6
X5.7Y-4.7
X5.7Y-4.8
X5.7Y-4.9
X5.7Y-5.
X5.7Y-5.1
X5.7Y-5.2
X5.7Y-5.3
X5.75Y-2.3
X5.75Y-2.4
X5.75Y-2.5
X5.75Y-2.6
X5.75Y-2.7
X5.75Y-2.8
X5.75Y-2.9
X5.75Y-3.
X5.75Y-3.2
X5.8Y-3.5
X5.8Y-3.6
X5.8Y-3.7
X5.8Y-3.8
X5.8Y-3.9
X5.8Y-4.
X5.9Y-3.4
X5.9Y-3.5
X5.9Y-3.6
X5.9Y-3.7
X5.9Y-3.8
X5.9Y-3.9
X5.9Y-4.
X5.9Y-4.1
X5.9Y-4.2
X5.9Y-4.3
X5.9Y-4.4
X5.9Y-4.5
X5.9Y-4.6
X5.9Y-4.7
X5.9Y-4.8
X5.9Y-4.9
X5.9Y-5.
X5.9Y-5.1
X5.9Y-5.2
X5.9Y-5.3
X5.95Y-3.2
X6.Y-5.5
X6.05Y-2.3
X6.05Y-2.4
X6.05Y-2.5
X6.05Y-2.6
X6.05Y-2.7
X6.05Y-2.8
X6.05Y-2.9
X6.05Y-3.
X6.2Y-2.3
X6.2Y-2.4
X6.2Y-2.5
X6.2Y-2.6
X6.2Y-2.7
X6.2Y-2.8
X6.2Y-2.9
X6.2Y-3.
X6.2Y-3.2
X6.2Y-5.5
X6.4Y-3.2
X6.5Y-2.3
X6.5Y-2.4
X6.5Y-2.5
X6.5Y-2.6
X6.5Y-2.7
X6.5Y-2.8
X6.5Y-2.9
X6.5Y-3.
X6.5Y-3.4
X6.5Y-3.5
X6.5Y-3.6
X6.5Y-3.7
X6.5Y-3.8
X6.5Y-3.9
X6.5Y-4.
X6.5Y-4.1
X6.5Y-4.2
X6.5Y-4.3
X6.5Y-4.4
X6.5Y-4.5
X6.5Y-4.6
X6.5Y-4.7
X6.5Y-4.8
X6.5Y-4.9
X6.5Y-5.
X6.5Y-5.1
X6.5Y-5.2
X6.5Y-5.3
X6.5Y-5.5
X6.5Y-5.8
X6.6Y-3.
X6.6Y-3.1
X6.6Y-3.2
X6.6Y-3.3
X6.6Y-3.4
X6.6Y-3.5
X6.6Y-5.5
X6.6Y-5.8
X6.7Y-2.4
X6.7Y-2.5
X6.7Y-2.6
X6.7Y-2.7
X6.7Y-3.
X6.7Y-3.1
X6.7Y-3.2
X6.7Y-3.3
X6.7Y-3.4
X6.7Y-3.5
X6.7Y-3.6
X6.7Y-3.7
X6.7Y-3.9
X6.7Y-4.1
X6.7Y-4.2
X6.7Y-4.3
X6.7Y-4.4
X6.7Y-4.5
X6.7Y-4.6
X6.7Y-4.7
X6.7Y-4.8
X6.7Y-4.9
X6.7Y-5.
X6.7Y-5.1
X6.7Y-5.2
X6.7Y-5.3
X6.7Y-5.4
X6.7Y-5.5
X6.7Y-5.6
X6.7Y-5.8
X6.9Y-3.9
X6.9Y-5.8
X7.Y-2.15
X7.Y-2.25
X7.Y-2.4
X7.Y-2.5
X7.Y-2.6
X7.Y-2.7
X7.Y-3.
X7.Y-3.1
X7.Y-3.2
X7.Y-3.3
X7.Y-3.4
X7.Y-3.5
X7.Y-3.6
X7.Y-3.7
X7.Y-5.8
X7.1Y-5.8
X7.2Y-2.15
X7.2Y-2.25
X7.2Y-2.4
X7.2Y-2.5
X7.2Y-2.6
X7.2Y-2.7
X7.2Y-3.
X7.2Y-3.1
X7.2Y-3.2
X7.2Y-3.3
X7.2Y-3.4
X7.2Y-3.5
X7.2Y-3.6
X7.2Y-3.7
X7.2Y-3.9
X7.2Y-5.8
X7.3Y-4.1
X7.3Y-4.2
X7.3Y-4.3
X7.3Y-4.4
X7.3Y-4.5
X7.3Y-4.6
X7.3Y-4.7
X7.3Y-4.8
X7.3Y-4.9
X7.3Y-5.
X7.3Y-5.1
X7.3Y-5.2
X7.3Y-5.3
X7.3Y-5.4
X7.3Y-5.5
X7.3Y-5.6
X7.4Y-3.9
X7.5Y-2.4
X7.5Y-2.5
X7.5Y-2.6
X7.5Y-2.7
X7.5Y-3.
X7.5Y-3.1
X7.5Y-3.2
X7.5Y-3.3
X7.5Y-3.4
X7.5Y-3.5
X7.5Y-3.6
X7.5Y-3.7
X7.5Y-4.1
X7.5Y-4.2
X7.5Y-4.3
X7.5Y-4.4
X7.5Y-4.5
X7.5Y-4.6
X7.5Y-4.7
X7.5Y-4.8
X7.5Y-4.9
X7.5Y-5.
X7.5Y-5.1
X7.5Y-5.2
X7.5Y-5.3
X7.5Y-5.4
X7.5Y-5.5
X7.5Y-5.6
X7.6Y-3.
X7.6Y-3.1
X7.6Y-3.2
X7.6Y-3.3
X7.6Y-3.4
X7.6Y-3.5
X7.7Y-3.
X7.7Y-3.1
X7.7Y-3.2
X7.7Y-3.3
X7.7Y-3.4
X7.7Y-3.5
X7.7Y-3.6
X7.7Y-3.7
X7.7Y-3.9
X7.8Y-5.8
X7.9Y-3.9
X8.Y-3.
X8.Y-3.1
X8.Y-3.2
X8.Y-3.3
X8.Y-3.4
X8.Y-3.5
X8.Y-3.6
X8.Y-3.7
X8.Y-5.8
X8.1Y-4.1
X8.1Y-4.2
X8.1Y-4.3
X8.1Y-4.4
X8.1Y-4.5
X8.1Y-4.6
X8.1Y-4.7
X8.1Y-4.8
X8.1Y-4.9
X8.1Y-5.
X8.1Y-5.1
X8.1Y-5.2
X8.1Y-5.3
X8.1Y-5.4
X8.1Y-5.5
X8.1Y-5.6
X8.3Y-3.1
X8.3Y-3.2
X8.3Y-3.3
X8.3Y-3.4
X8.3Y-3.5
X8.3Y-3.6
X8.3Y-3.7
X8.3Y-3.9
X8.3Y-4.1
X8.3Y-4.2
X8.3Y-4.3
X8.3Y-4.4
X8.3Y-4.5
X8.3Y-4.6
X8.3Y-4.7
X8.3Y-4.9
X8.3Y-5.2
X8.3Y-5.3
X8.3Y-5.4
X8.5Y-3.9
X8.5Y-4.9
X8.6Y-3.1
X8.6Y-3.2
X8.6Y-3.3
X8.6Y-3.4
X8.6Y-3.5
X8.6Y-3.6
X8.6Y-3.7
X8.6Y-4.1
X8.6Y-4.2
X8.6Y-4.3
X8.6Y-4.4
X8.6Y-4.5
X8.6Y-4.6
X8.6Y-4.7
X8.6Y-5.2
X8.6Y-5.3
X8.6Y-5.4
T4
X8.5984Y-5.6115
X8.5984Y-5.7887
T5
X2.2Y-4.1
X2.2Y-4.2
X2.2Y-4.3
X2.2Y-4.4
X2.2Y-4.5
X2.2Y-4.6
X2.2Y-4.7
X2.2Y-4.8
X2.2Y-4.9
X2.2Y-5.
X2.2Y-5.1
X2.2Y-5.2
X2.2Y-5.3
X2.2Y-5.4
X2.2Y-5.5
X2.2Y-5.6
X2.2Y-5.7
X2.3Y-4.1
X2.3Y-4.2
X2.3Y-4.3
X2.3Y-4.4
X2.3Y-4.5
X2.3Y-4.6
X2.3Y-4.7
X2.3Y-4.8
X2.3Y-4.9
X2.3Y-5.
X2.3Y-5.1
X2.3Y-5.2
X2.3Y-5.3
X2.3Y-5.4
X2.3Y-5.5
X2.3Y-5.6
X2.3Y-5.7
X2.9Y-3.4
X2.9Y-3.5
X4.2Y-5.8
X4.3Y-5.8
X4.4Y-5.8
X5.Y-5.7
X5.Y-5.8
X5.1Y-5.7
X5.1Y-5.8
X5.2Y-5.7
X5.2Y-5.8
X5.3Y-5.7
X5.3Y-5.8
X5.4Y-5.7
X5.4Y-5.8
X5.5Y-5.7
X5.5Y-5.8
X5.6Y-5.7
X5.6Y-5.8
X5.7Y-5.7
X5.7Y-5.8
X5.8Y-5.7
X5.8Y-5.8
X5.9Y-5.7
X5.9Y-5.8
X6.Y-5.7
X6.Y-5.8
X6.1Y-5.7
X6.1Y-5.8
X6.2Y-5.7
X6.2Y-5.8
X7.6488Y-2.4875
X8.15Y-3.1
X8.15Y-3.2
X8.2Y-5.8
X8.3Y-5.8
X8.4Y-5.
X8.4Y-5.1
X8.4362Y-2.4875
X8.5Y-5.
X8.5Y-5.1
T6
X2.319Y-2.538
X2.319Y-2.645
X2.319Y-2.754
X2.319Y-2.862
X2.431Y-2.484
X2.431Y-2.592
X2.431Y-2.7
X2.431Y-2.808
X2.431Y-2.916
T7
X8.5Y-5.5623
X8.5Y-5.8379
T8
X4.7244Y-2.1246
X4.7244Y-5.8254
X7.4803Y-2.1246
X7.4803Y-5.8254
T9
X2.375Y-2.2081
X2.375Y-3.1919
T2
X2.3Y-3.5817G85X2.3Y-3.6683
G05
X2.3748Y-3.814G85X2.4614Y-3.814
G05
X2.5441Y-3.5718G85X2.5441Y-3.6782
G05
T0
M30
