G04 (created by PCBNEW (2013-07-07 BZR 4022)-stable) date 2/19/2015 7:57:59 AM*
%MOIN*%
G04 Gerber Fmt 3.4, Leading zero omitted, Abs format*
%FSLAX34Y34*%
G01*
G70*
G90*
G04 APERTURE LIST*
%ADD10C,0.00590551*%
%ADD11C,0.015*%
%ADD12R,0.075X0.075*%
%ADD13C,0.075*%
%ADD14R,0.08X0.08*%
%ADD15C,0.08*%
%ADD16C,0.18*%
%ADD17R,0.0787X0.0787*%
%ADD18C,0.0787*%
%ADD19O,0.1302X0.2169*%
%ADD20O,0.1302X0.2365*%
%ADD21O,0.2169X0.1302*%
%ADD22C,0.1184*%
%ADD23C,0.0909*%
%ADD24C,0.1794*%
G04 APERTURE END LIST*
G54D10*
G54D11*
X86500Y-59435D02*
G75*
G03X87000Y-58935I0J500D01*
G74*
G01*
X20500Y-20065D02*
G75*
G03X20000Y-20565I0J-500D01*
G74*
G01*
X87000Y-20565D02*
G75*
G03X86500Y-20065I-500J0D01*
G74*
G01*
X20000Y-58935D02*
G75*
G03X20500Y-59435I500J0D01*
G74*
G01*
X20000Y-20565D02*
X20000Y-58935D01*
X20500Y-59435D02*
X86500Y-59435D01*
X86500Y-20065D02*
X20500Y-20065D01*
X87000Y-58935D02*
X87000Y-20565D01*
G54D12*
X86000Y-47000D03*
G54D13*
X86000Y-46000D03*
X86000Y-45000D03*
X86000Y-44000D03*
X86000Y-43000D03*
X86000Y-42000D03*
X86000Y-41000D03*
X83000Y-41000D03*
X83000Y-42000D03*
X83000Y-43000D03*
X83000Y-44000D03*
X83000Y-45000D03*
X83000Y-46000D03*
X83000Y-47000D03*
G54D14*
X62000Y-57000D03*
G54D15*
X62000Y-58000D03*
X61000Y-57000D03*
X61000Y-58000D03*
X60000Y-57000D03*
X60000Y-58000D03*
X59000Y-57000D03*
X59000Y-58000D03*
X58000Y-57000D03*
X58000Y-58000D03*
X57000Y-57000D03*
X57000Y-58000D03*
X56000Y-57000D03*
X56000Y-58000D03*
X55000Y-57000D03*
X55000Y-58000D03*
X54000Y-57000D03*
X54000Y-58000D03*
X53000Y-57000D03*
X53000Y-58000D03*
X52000Y-57000D03*
X52000Y-58000D03*
X51000Y-57000D03*
X51000Y-58000D03*
X50000Y-57000D03*
X50000Y-58000D03*
G54D16*
X74803Y-58254D03*
X74803Y-21246D03*
X47244Y-58254D03*
X47244Y-21246D03*
G54D13*
X72000Y-21500D03*
X72000Y-22500D03*
X70000Y-21500D03*
X70000Y-22500D03*
X43875Y-32000D03*
X45875Y-32000D03*
X38750Y-32000D03*
X40750Y-32000D03*
X33625Y-32000D03*
X35625Y-32000D03*
X53000Y-32000D03*
X55000Y-32000D03*
X62000Y-32000D03*
X64000Y-32000D03*
X83000Y-49000D03*
X85000Y-49000D03*
X48500Y-32000D03*
X50500Y-32000D03*
X83000Y-39000D03*
X85000Y-39000D03*
X57500Y-32000D03*
X59500Y-32000D03*
X77000Y-39000D03*
X79000Y-39000D03*
X72000Y-39000D03*
X74000Y-39000D03*
X67000Y-39000D03*
X69000Y-39000D03*
X51000Y-55000D03*
X53000Y-55000D03*
X44000Y-55000D03*
X46000Y-55000D03*
X62000Y-55000D03*
X60000Y-55000D03*
X67000Y-58000D03*
X69000Y-58000D03*
X78000Y-58000D03*
X80000Y-58000D03*
X35000Y-58000D03*
X37000Y-58000D03*
X27000Y-58000D03*
X29000Y-58000D03*
X65000Y-58000D03*
G54D12*
X65000Y-55000D03*
X65000Y-30000D03*
G54D13*
X65000Y-29000D03*
X65000Y-28000D03*
X65000Y-27000D03*
X65000Y-26000D03*
X65000Y-25000D03*
X65000Y-24000D03*
X65000Y-23000D03*
X62000Y-23000D03*
X62000Y-24000D03*
X62000Y-25000D03*
X62000Y-26000D03*
X62000Y-27000D03*
X62000Y-28000D03*
X62000Y-29000D03*
X62000Y-30000D03*
G54D12*
X70000Y-37000D03*
G54D13*
X70000Y-36000D03*
X70000Y-35000D03*
X70000Y-34000D03*
X70000Y-33000D03*
X70000Y-32000D03*
X70000Y-31000D03*
X70000Y-30000D03*
X67000Y-30000D03*
X67000Y-31000D03*
X67000Y-32000D03*
X67000Y-33000D03*
X67000Y-34000D03*
X67000Y-35000D03*
X67000Y-36000D03*
X67000Y-37000D03*
G54D12*
X60500Y-30000D03*
G54D13*
X60500Y-29000D03*
X60500Y-28000D03*
X60500Y-27000D03*
X60500Y-26000D03*
X60500Y-25000D03*
X60500Y-24000D03*
X60500Y-23000D03*
X57500Y-23000D03*
X57500Y-24000D03*
X57500Y-25000D03*
X57500Y-26000D03*
X57500Y-27000D03*
X57500Y-28000D03*
X57500Y-29000D03*
X57500Y-30000D03*
G54D12*
X81000Y-56000D03*
G54D13*
X81000Y-55000D03*
X81000Y-54000D03*
X81000Y-53000D03*
X81000Y-52000D03*
X81000Y-51000D03*
X81000Y-50000D03*
X81000Y-49000D03*
X81000Y-48000D03*
X81000Y-47000D03*
X81000Y-46000D03*
X81000Y-45000D03*
X81000Y-44000D03*
X81000Y-43000D03*
X81000Y-42000D03*
X81000Y-41000D03*
X75000Y-41000D03*
X75000Y-42000D03*
X75000Y-43000D03*
X75000Y-44000D03*
X75000Y-45000D03*
X75000Y-46000D03*
X75000Y-47000D03*
X75000Y-48000D03*
X75000Y-49000D03*
X75000Y-50000D03*
X75000Y-51000D03*
X75000Y-52000D03*
X75000Y-53000D03*
X75000Y-54000D03*
X75000Y-55000D03*
X75000Y-56000D03*
G54D12*
X73000Y-56000D03*
G54D13*
X73000Y-55000D03*
X73000Y-54000D03*
X73000Y-53000D03*
X73000Y-52000D03*
X73000Y-51000D03*
X73000Y-50000D03*
X73000Y-49000D03*
X73000Y-48000D03*
X73000Y-47000D03*
X73000Y-46000D03*
X73000Y-45000D03*
X73000Y-44000D03*
X73000Y-43000D03*
X73000Y-42000D03*
X73000Y-41000D03*
X67000Y-41000D03*
X67000Y-42000D03*
X67000Y-43000D03*
X67000Y-44000D03*
X67000Y-45000D03*
X67000Y-46000D03*
X67000Y-47000D03*
X67000Y-48000D03*
X67000Y-49000D03*
X67000Y-50000D03*
X67000Y-51000D03*
X67000Y-52000D03*
X67000Y-53000D03*
X67000Y-54000D03*
X67000Y-55000D03*
X67000Y-56000D03*
G54D12*
X41000Y-56000D03*
G54D13*
X41000Y-55000D03*
X41000Y-54000D03*
X41000Y-53000D03*
X41000Y-52000D03*
X41000Y-51000D03*
X41000Y-50000D03*
X41000Y-49000D03*
X41000Y-48000D03*
X41000Y-47000D03*
X41000Y-46000D03*
X41000Y-45000D03*
X41000Y-44000D03*
X41000Y-43000D03*
X41000Y-42000D03*
X41000Y-41000D03*
X41000Y-40000D03*
X41000Y-39000D03*
X41000Y-38000D03*
X41000Y-37000D03*
X35000Y-37000D03*
X35000Y-38000D03*
X35000Y-39000D03*
X35000Y-40000D03*
X35000Y-41000D03*
X35000Y-42000D03*
X35000Y-43000D03*
X35000Y-44000D03*
X35000Y-45000D03*
X35000Y-46000D03*
X35000Y-47000D03*
X35000Y-48000D03*
X35000Y-49000D03*
X35000Y-50000D03*
X35000Y-51000D03*
X35000Y-52000D03*
X35000Y-53000D03*
X35000Y-54000D03*
X35000Y-55000D03*
X35000Y-56000D03*
G54D12*
X33000Y-56000D03*
G54D13*
X33000Y-55000D03*
X33000Y-54000D03*
X33000Y-53000D03*
X33000Y-52000D03*
X33000Y-51000D03*
X33000Y-50000D03*
X33000Y-49000D03*
X33000Y-48000D03*
X33000Y-47000D03*
X33000Y-46000D03*
X33000Y-45000D03*
X33000Y-44000D03*
X33000Y-43000D03*
X33000Y-42000D03*
X33000Y-41000D03*
X33000Y-40000D03*
X33000Y-39000D03*
X33000Y-38000D03*
X33000Y-37000D03*
X27000Y-37000D03*
X27000Y-38000D03*
X27000Y-39000D03*
X27000Y-40000D03*
X27000Y-41000D03*
X27000Y-42000D03*
X27000Y-43000D03*
X27000Y-44000D03*
X27000Y-45000D03*
X27000Y-46000D03*
X27000Y-47000D03*
X27000Y-48000D03*
X27000Y-49000D03*
X27000Y-50000D03*
X27000Y-51000D03*
X27000Y-52000D03*
X27000Y-53000D03*
X27000Y-54000D03*
X27000Y-55000D03*
X27000Y-56000D03*
G54D12*
X57000Y-53000D03*
G54D13*
X57000Y-52000D03*
X57000Y-51000D03*
X57000Y-50000D03*
X57000Y-49000D03*
X57000Y-48000D03*
X57000Y-47000D03*
X57000Y-46000D03*
X57000Y-45000D03*
X57000Y-44000D03*
X57000Y-43000D03*
X57000Y-42000D03*
X57000Y-41000D03*
X57000Y-40000D03*
X57000Y-39000D03*
X57000Y-38000D03*
X57000Y-37000D03*
X57000Y-36000D03*
X57000Y-35000D03*
X57000Y-34000D03*
X51000Y-34000D03*
X51000Y-35000D03*
X51000Y-36000D03*
X51000Y-37000D03*
X51000Y-38000D03*
X51000Y-39000D03*
X51000Y-40000D03*
X51000Y-41000D03*
X51000Y-42000D03*
X51000Y-43000D03*
X51000Y-44000D03*
X51000Y-45000D03*
X51000Y-46000D03*
X51000Y-47000D03*
X51000Y-48000D03*
X51000Y-49000D03*
X51000Y-50000D03*
X51000Y-51000D03*
X51000Y-52000D03*
X51000Y-53000D03*
G54D12*
X65000Y-53000D03*
G54D13*
X65000Y-52000D03*
X65000Y-51000D03*
X65000Y-50000D03*
X65000Y-49000D03*
X65000Y-48000D03*
X65000Y-47000D03*
X65000Y-46000D03*
X65000Y-45000D03*
X65000Y-44000D03*
X65000Y-43000D03*
X65000Y-42000D03*
X65000Y-41000D03*
X65000Y-40000D03*
X65000Y-39000D03*
X65000Y-38000D03*
X65000Y-37000D03*
X65000Y-36000D03*
X65000Y-35000D03*
X65000Y-34000D03*
X59000Y-34000D03*
X59000Y-35000D03*
X59000Y-36000D03*
X59000Y-37000D03*
X59000Y-38000D03*
X59000Y-39000D03*
X59000Y-40000D03*
X59000Y-41000D03*
X59000Y-42000D03*
X59000Y-43000D03*
X59000Y-44000D03*
X59000Y-45000D03*
X59000Y-46000D03*
X59000Y-47000D03*
X59000Y-48000D03*
X59000Y-49000D03*
X59000Y-50000D03*
X59000Y-51000D03*
X59000Y-52000D03*
X59000Y-53000D03*
G54D15*
X82000Y-58000D03*
X83000Y-58000D03*
X81500Y-31000D03*
X81500Y-32000D03*
G54D13*
X86000Y-52000D03*
X83000Y-52000D03*
X86000Y-54000D03*
X83000Y-54000D03*
X66000Y-58000D03*
X66000Y-55000D03*
X86000Y-53000D03*
X83000Y-53000D03*
G54D14*
X84000Y-51000D03*
G54D15*
X84000Y-50000D03*
G54D14*
X85000Y-51000D03*
G54D15*
X85000Y-50000D03*
G54D12*
X25000Y-57000D03*
G54D13*
X25000Y-56000D03*
X25000Y-55000D03*
X25000Y-54000D03*
X25000Y-53000D03*
X25000Y-52000D03*
G54D12*
X58000Y-40000D03*
G54D13*
X58000Y-39000D03*
X58000Y-38000D03*
X58000Y-37000D03*
X58000Y-36000D03*
X58000Y-35000D03*
G54D14*
X29000Y-34000D03*
G54D15*
X29000Y-35000D03*
G54D17*
X32000Y-34106D03*
G54D18*
X32000Y-34894D03*
G54D13*
X71000Y-58000D03*
X70000Y-58000D03*
X72000Y-58000D03*
G54D12*
X75000Y-37000D03*
G54D13*
X75000Y-36000D03*
X75000Y-35000D03*
X75000Y-34000D03*
X75000Y-33000D03*
X75000Y-32000D03*
X75000Y-31000D03*
X75000Y-30000D03*
X72000Y-30000D03*
X72000Y-31000D03*
X72000Y-32000D03*
X72000Y-33000D03*
X72000Y-34000D03*
X72000Y-35000D03*
X72000Y-36000D03*
X72000Y-37000D03*
G54D12*
X80000Y-37000D03*
G54D13*
X80000Y-36000D03*
X80000Y-35000D03*
X80000Y-34000D03*
X80000Y-33000D03*
X80000Y-32000D03*
X80000Y-31000D03*
X80000Y-30000D03*
X77000Y-30000D03*
X77000Y-31000D03*
X77000Y-32000D03*
X77000Y-33000D03*
X77000Y-34000D03*
X77000Y-35000D03*
X77000Y-36000D03*
X77000Y-37000D03*
G54D12*
X86000Y-37000D03*
G54D13*
X86000Y-36000D03*
X86000Y-35000D03*
X86000Y-34000D03*
X86000Y-33000D03*
X86000Y-32000D03*
X86000Y-31000D03*
X83000Y-31000D03*
X83000Y-32000D03*
X83000Y-33000D03*
X83000Y-34000D03*
X83000Y-35000D03*
X83000Y-36000D03*
X83000Y-37000D03*
G54D12*
X56000Y-30000D03*
G54D13*
X56000Y-29000D03*
X56000Y-28000D03*
X56000Y-27000D03*
X56000Y-26000D03*
X56000Y-25000D03*
X56000Y-24000D03*
X53000Y-24000D03*
X53000Y-25000D03*
X53000Y-26000D03*
X53000Y-27000D03*
X53000Y-28000D03*
X53000Y-29000D03*
X53000Y-30000D03*
G54D12*
X29000Y-30000D03*
G54D13*
X29000Y-29000D03*
X29000Y-28000D03*
X29000Y-27000D03*
X29000Y-26000D03*
X29000Y-25000D03*
X29000Y-24000D03*
X29000Y-23000D03*
X26000Y-23000D03*
X26000Y-24000D03*
X26000Y-25000D03*
X26000Y-26000D03*
X26000Y-27000D03*
X26000Y-28000D03*
X26000Y-29000D03*
X26000Y-30000D03*
G54D12*
X75000Y-27000D03*
G54D13*
X75000Y-26000D03*
X75000Y-25000D03*
X75000Y-24000D03*
X72000Y-24000D03*
X72000Y-25000D03*
X72000Y-26000D03*
X72000Y-27000D03*
G54D12*
X70000Y-27000D03*
G54D13*
X70000Y-26000D03*
X70000Y-25000D03*
X70000Y-24000D03*
X67000Y-24000D03*
X67000Y-25000D03*
X67000Y-26000D03*
X67000Y-27000D03*
G54D12*
X51500Y-30000D03*
G54D13*
X51500Y-29000D03*
X51500Y-28000D03*
X51500Y-27000D03*
X51500Y-26000D03*
X51500Y-25000D03*
X51500Y-24000D03*
X48500Y-24000D03*
X48500Y-25000D03*
X48500Y-26000D03*
X48500Y-27000D03*
X48500Y-28000D03*
X48500Y-29000D03*
X48500Y-30000D03*
G54D19*
X23000Y-36250D03*
G54D20*
X25441Y-36250D03*
G54D21*
X24181Y-38140D03*
G54D14*
X44000Y-58000D03*
G54D15*
X43000Y-58000D03*
X42000Y-58000D03*
G54D13*
X27000Y-32000D03*
X26000Y-32000D03*
X28000Y-32000D03*
X31000Y-28000D03*
X30000Y-28000D03*
X32000Y-28000D03*
X31000Y-26000D03*
X30000Y-26000D03*
X32000Y-26000D03*
X31000Y-30000D03*
X30000Y-30000D03*
X32000Y-30000D03*
X31000Y-24000D03*
X30000Y-24000D03*
X32000Y-24000D03*
G54D12*
X49000Y-53000D03*
G54D13*
X49000Y-52000D03*
X49000Y-51000D03*
X49000Y-50000D03*
X49000Y-49000D03*
X49000Y-48000D03*
X49000Y-47000D03*
X49000Y-46000D03*
X49000Y-45000D03*
X49000Y-44000D03*
X49000Y-43000D03*
X49000Y-42000D03*
X49000Y-41000D03*
X49000Y-40000D03*
X43000Y-40000D03*
X43000Y-41000D03*
X43000Y-42000D03*
X43000Y-43000D03*
X43000Y-44000D03*
X43000Y-45000D03*
X43000Y-46000D03*
X43000Y-47000D03*
X43000Y-48000D03*
X43000Y-49000D03*
X43000Y-50000D03*
X43000Y-51000D03*
X43000Y-52000D03*
X43000Y-53000D03*
G54D12*
X76000Y-35000D03*
G54D13*
X76000Y-34000D03*
X76000Y-33000D03*
X76000Y-32000D03*
X76000Y-31000D03*
X76000Y-30000D03*
G54D12*
X66000Y-35000D03*
G54D13*
X66000Y-34000D03*
X66000Y-33000D03*
X66000Y-32000D03*
X66000Y-31000D03*
X66000Y-30000D03*
G54D22*
X85000Y-58379D03*
X85000Y-55623D03*
G54D23*
X85984Y-57887D03*
X85984Y-56115D03*
G54D24*
X23750Y-22081D03*
X23750Y-31919D03*
G54D14*
X24310Y-24840D03*
G54D15*
X24310Y-25920D03*
X24310Y-27000D03*
X24310Y-28080D03*
X24310Y-29160D03*
X23190Y-28620D03*
X23190Y-27540D03*
X23190Y-26450D03*
X23190Y-25380D03*
X76488Y-24875D03*
X84362Y-24875D03*
G54D12*
X36625Y-30000D03*
G54D13*
X36625Y-27000D03*
X36625Y-26000D03*
X36625Y-25000D03*
X36625Y-24000D03*
X33625Y-24000D03*
X33625Y-25000D03*
X33625Y-26000D03*
X33625Y-27000D03*
X33625Y-28000D03*
X33625Y-29000D03*
X33625Y-30000D03*
X36625Y-28000D03*
X36625Y-29000D03*
G54D12*
X41750Y-30000D03*
G54D13*
X41750Y-27000D03*
X41750Y-26000D03*
X41750Y-25000D03*
X41750Y-24000D03*
X38750Y-24000D03*
X38750Y-25000D03*
X38750Y-26000D03*
X38750Y-27000D03*
X38750Y-28000D03*
X38750Y-29000D03*
X38750Y-30000D03*
X41750Y-28000D03*
X41750Y-29000D03*
G54D12*
X46875Y-30000D03*
G54D13*
X46875Y-27000D03*
X46875Y-26000D03*
X46875Y-25000D03*
X46875Y-24000D03*
X43875Y-24000D03*
X43875Y-25000D03*
X43875Y-26000D03*
X43875Y-27000D03*
X43875Y-28000D03*
X43875Y-29000D03*
X43875Y-30000D03*
X46875Y-28000D03*
X46875Y-29000D03*
G54D14*
X22000Y-41000D03*
G54D15*
X23000Y-41000D03*
X22000Y-42000D03*
X23000Y-42000D03*
X22000Y-43000D03*
X23000Y-43000D03*
X22000Y-44000D03*
X23000Y-44000D03*
X22000Y-45000D03*
X23000Y-45000D03*
X22000Y-46000D03*
X23000Y-46000D03*
X22000Y-47000D03*
X23000Y-47000D03*
X22000Y-48000D03*
X23000Y-48000D03*
X22000Y-49000D03*
X23000Y-49000D03*
X22000Y-50000D03*
X23000Y-50000D03*
X22000Y-51000D03*
X23000Y-51000D03*
X22000Y-52000D03*
X23000Y-52000D03*
X22000Y-53000D03*
X23000Y-53000D03*
X23000Y-54000D03*
X22000Y-54000D03*
X23000Y-55000D03*
X22000Y-55000D03*
X22000Y-56000D03*
X23000Y-56000D03*
X22000Y-57000D03*
X23000Y-57000D03*
M02*
