M48
INCH,TZ
T1C0.025
T2C0.032
T3C0.032
T4C0.039
T5C0.040
T6C0.041
T7C0.043
T8C0.059
T9C0.120
T10C0.125
%
G90
G05
T1
X023000Y-047500
X023000Y-054500
X027000Y-026000
X028000Y-041500
X028000Y-046000
X028000Y-052500
X028000Y-056000
X031000Y-025000
X033000Y-056000
X034750Y-035250
X038000Y-048500
X038000Y-053000
X038750Y-038000
X040000Y-028500
X040250Y-039500
X040750Y-036000
X041250Y-040500
X041500Y-029500
X042900Y-037075
X043250Y-039500
X045000Y-030000
X045000Y-036250
X046625Y-035875
X046750Y-039500
X046750Y-041250
X049500Y-028000
X052500Y-044500
X053000Y-041500
X054000Y-045500
X054250Y-050000
X055000Y-030000
X055000Y-034000
X055000Y-035000
X055000Y-038750
X055250Y-045250
X055250Y-051000
X055500Y-033000
X055500Y-044000
X055750Y-043000
X056000Y-042000
X056000Y-052000
X056250Y-041000
X057000Y-053000
X059000Y-041000
X059000Y-041500
X059250Y-025500
X059500Y-026500
X060000Y-054000
X061500Y-043500
X062000Y-048000
X062500Y-049000
X062750Y-046000
X063000Y-037500
X063250Y-047000
X063500Y-052000
X064250Y-048000
X064250Y-049000
X065000Y-026500
X067000Y-052000
X068000Y-025750
X069750Y-040000
X070250Y-028000
X070500Y-038000
X071750Y-040500
X072500Y-032875
X075000Y-054000
X076600Y-032500
X077000Y-035500
X077250Y-036500
X078750Y-042000
X078750Y-046000
X080750Y-034000
X084750Y-034000
X085250Y-044500
X086000Y-040000
T3
X021000Y-041000
X024000Y-052000
X024000Y-053000
X024000Y-054000
X024000Y-055000
X024000Y-056000
X024000Y-057000
X026000Y-023000
X026000Y-024000
X026000Y-025000
X026000Y-026000
X026000Y-027000
X026000Y-028000
X026000Y-029000
X026000Y-030000
X026000Y-032000
X026000Y-040000
X026000Y-041000
X026000Y-042000
X026000Y-043000
X026000Y-044000
X026000Y-045000
X026000Y-046000
X026000Y-048000
X026000Y-050000
X026000Y-051000
X026000Y-052000
X026000Y-053000
X026000Y-054000
X026000Y-055000
X026000Y-056000
X026000Y-058000
X027000Y-032000
X028000Y-032000
X028000Y-048000
X028000Y-058000
X029000Y-023000
X029000Y-024000
X029000Y-025000
X029000Y-026000
X029000Y-027000
X029000Y-028000
X029000Y-029000
X029000Y-030000
X029000Y-034000
X029000Y-035000
X029000Y-040000
X029000Y-041000
X029000Y-042000
X029000Y-043000
X029000Y-044000
X029000Y-045000
X029000Y-046000
X029000Y-050000
X029000Y-051000
X029000Y-052000
X029000Y-053000
X029000Y-054000
X029000Y-055000
X029000Y-056000
X030000Y-024000
X030000Y-026000
X030000Y-028000
X030000Y-030000
X031000Y-024000
X031000Y-026000
X031000Y-028000
X031000Y-030000
X031000Y-034000
X031000Y-035000
X031000Y-036000
X031000Y-037000
X031000Y-038000
X031000Y-039000
X031000Y-040000
X031000Y-041000
X031000Y-042000
X031000Y-043000
X031000Y-045000
X031000Y-047000
X031000Y-048000
X031000Y-049000
X031000Y-050000
X031000Y-051000
X031000Y-052000
X031000Y-053000
X031000Y-054000
X031000Y-055000
X031000Y-056000
X031000Y-058000
X032000Y-024000
X032000Y-026000
X032000Y-028000
X032000Y-030000
X033000Y-023000
X033000Y-024000
X033000Y-025000
X033000Y-026000
X033000Y-027000
X033000Y-028000
X033000Y-029000
X033000Y-030000
X033000Y-032000
X033000Y-045000
X033000Y-058000
X034000Y-034000
X034000Y-035000
X034000Y-036000
X034000Y-037000
X034000Y-038000
X034000Y-039000
X034000Y-040000
X034000Y-041000
X034000Y-042000
X034000Y-043000
X034000Y-047000
X034000Y-048000
X034000Y-049000
X034000Y-050000
X034000Y-051000
X034000Y-052000
X034000Y-053000
X034000Y-054000
X034000Y-055000
X034000Y-056000
X035000Y-032000
X036000Y-023000
X036000Y-024000
X036000Y-025000
X036000Y-026000
X036000Y-027000
X036000Y-028000
X036000Y-029000
X036000Y-030000
X036000Y-034000
X036000Y-035000
X036000Y-036000
X036000Y-037000
X036000Y-038000
X036000Y-039000
X036000Y-040000
X036000Y-041000
X036000Y-042000
X036000Y-043000
X036000Y-044000
X036000Y-045000
X036000Y-046000
X036000Y-047000
X036000Y-048000
X036000Y-049000
X036000Y-050000
X036000Y-051000
X036000Y-052000
X036000Y-053000
X036000Y-055000
X038000Y-024000
X038000Y-025000
X038000Y-026000
X038000Y-027000
X038000Y-028000
X038000Y-029000
X038000Y-030000
X038000Y-032000
X038000Y-055000
X040000Y-032000
X041000Y-024000
X041000Y-025000
X041000Y-026000
X041000Y-027000
X041000Y-028000
X041000Y-029000
X041000Y-030000
X042000Y-034000
X042000Y-035000
X042000Y-036000
X042000Y-037000
X042000Y-038000
X042000Y-039000
X042000Y-040000
X042000Y-041000
X042000Y-042000
X042000Y-043000
X042000Y-044000
X042000Y-045000
X042000Y-046000
X042000Y-047000
X042000Y-048000
X042000Y-049000
X042000Y-050000
X042000Y-051000
X042000Y-052000
X042000Y-053000
X043000Y-024000
X043000Y-025000
X043000Y-026000
X043000Y-027000
X043000Y-028000
X043000Y-029000
X043000Y-030000
X043000Y-032000
X044000Y-034000
X044000Y-035000
X044000Y-036000
X044000Y-037000
X044000Y-038000
X044000Y-039000
X044000Y-040000
X044000Y-041000
X044000Y-042000
X044000Y-043000
X044000Y-044000
X044000Y-045000
X044000Y-046000
X044000Y-047000
X044000Y-048000
X044000Y-049000
X044000Y-050000
X044000Y-051000
X044000Y-052000
X044000Y-053000
X044000Y-055000
X045000Y-032000
X046000Y-024000
X046000Y-025000
X046000Y-026000
X046000Y-027000
X046000Y-028000
X046000Y-029000
X046000Y-030000
X046000Y-055000
X048000Y-024000
X048000Y-025000
X048000Y-026000
X048000Y-027000
X048000Y-028000
X048000Y-029000
X048000Y-030000
X048000Y-032000
X050000Y-032000
X050000Y-034000
X050000Y-035000
X050000Y-036000
X050000Y-037000
X050000Y-038000
X050000Y-039000
X050000Y-040000
X050000Y-041000
X050000Y-042000
X050000Y-043000
X050000Y-044000
X050000Y-045000
X050000Y-046000
X050000Y-047000
X050000Y-048000
X050000Y-049000
X050000Y-050000
X050000Y-051000
X050000Y-052000
X050000Y-053000
X051000Y-024000
X051000Y-025000
X051000Y-026000
X051000Y-027000
X051000Y-028000
X051000Y-029000
X051000Y-030000
X052000Y-034000
X052000Y-035000
X052000Y-036000
X052000Y-037000
X052000Y-038000
X052000Y-039000
X052000Y-040000
X052000Y-041000
X052000Y-042000
X052000Y-043000
X052000Y-044000
X052000Y-045000
X052000Y-046000
X052000Y-047000
X052000Y-048000
X052000Y-049000
X052000Y-050000
X052000Y-051000
X052000Y-052000
X052000Y-053000
X052000Y-055000
X053000Y-024000
X053000Y-025000
X053000Y-026000
X053000Y-027000
X053000Y-028000
X053000Y-029000
X053000Y-030000
X053000Y-032000
X054000Y-055000
X055000Y-032000
X056000Y-024000
X056000Y-025000
X056000Y-026000
X056000Y-027000
X056000Y-028000
X056000Y-029000
X056000Y-030000
X058000Y-023000
X058000Y-024000
X058000Y-025000
X058000Y-026000
X058000Y-027000
X058000Y-028000
X058000Y-029000
X058000Y-030000
X058000Y-032000
X058000Y-034000
X058000Y-035000
X058000Y-036000
X058000Y-037000
X058000Y-038000
X058000Y-039000
X058000Y-040000
X058000Y-041000
X058000Y-042000
X058000Y-043000
X058000Y-044000
X058000Y-045000
X058000Y-046000
X058000Y-047000
X058000Y-048000
X058000Y-049000
X058000Y-050000
X058000Y-051000
X058000Y-052000
X058000Y-053000
X059000Y-035000
X059000Y-036000
X059000Y-037000
X059000Y-038000
X059000Y-039000
X059000Y-040000
X060000Y-032000
X060000Y-034000
X060000Y-035000
X060000Y-036000
X060000Y-037000
X060000Y-038000
X060000Y-039000
X060000Y-040000
X060000Y-041000
X060000Y-042000
X060000Y-043000
X060000Y-044000
X060000Y-045000
X060000Y-046000
X060000Y-047000
X060000Y-048000
X060000Y-049000
X060000Y-050000
X060000Y-051000
X060000Y-052000
X060000Y-053000
X060000Y-055000
X061000Y-023000
X061000Y-024000
X061000Y-025000
X061000Y-026000
X061000Y-027000
X061000Y-028000
X061000Y-029000
X061000Y-030000
X062000Y-055000
X063000Y-024000
X063000Y-025000
X063000Y-026000
X063000Y-027000
X063000Y-028000
X063000Y-029000
X063000Y-030000
X063000Y-032000
X064000Y-055000
X064000Y-056000
X065000Y-032000
X066000Y-024000
X066000Y-025000
X066000Y-026000
X066000Y-027000
X066000Y-028000
X066000Y-029000
X066000Y-030000
X066000Y-034000
X066000Y-035000
X066000Y-036000
X066000Y-037000
X066000Y-038000
X066000Y-039000
X066000Y-040000
X066000Y-041000
X066000Y-042000
X066000Y-043000
X066000Y-044000
X066000Y-045000
X066000Y-046000
X066000Y-047000
X066000Y-048000
X066000Y-049000
X066000Y-050000
X066000Y-051000
X066000Y-052000
X066000Y-053000
X066000Y-055000
X066000Y-058000
X067000Y-024000
X067000Y-025000
X067000Y-026000
X067000Y-027000
X067000Y-030000
X067000Y-031000
X067000Y-032000
X067000Y-033000
X067000Y-034000
X067000Y-035000
X067000Y-036000
X067000Y-037000
X067000Y-039000
X067000Y-055000
X067000Y-058000
X068000Y-041000
X068000Y-042000
X068000Y-043000
X068000Y-044000
X068000Y-045000
X068000Y-046000
X068000Y-047000
X068000Y-048000
X068000Y-049000
X068000Y-050000
X068000Y-051000
X068000Y-052000
X068000Y-053000
X068000Y-054000
X068000Y-055000
X068000Y-056000
X068000Y-058000
X068500Y-021500
X068500Y-022500
X069000Y-039000
X070000Y-024000
X070000Y-025000
X070000Y-026000
X070000Y-027000
X070000Y-030000
X070000Y-031000
X070000Y-032000
X070000Y-033000
X070000Y-034000
X070000Y-035000
X070000Y-036000
X070000Y-037000
X070000Y-058000
X070500Y-021500
X070500Y-022500
X071000Y-024000
X071000Y-025000
X071000Y-026000
X071000Y-027000
X071000Y-030000
X071000Y-031000
X071000Y-032000
X071000Y-033000
X071000Y-034000
X071000Y-035000
X071000Y-036000
X071000Y-037000
X071000Y-039000
X073000Y-039000
X074000Y-024000
X074000Y-025000
X074000Y-026000
X074000Y-027000
X074000Y-030000
X074000Y-031000
X074000Y-032000
X074000Y-033000
X074000Y-034000
X074000Y-035000
X074000Y-036000
X074000Y-037000
X074000Y-041000
X074000Y-042000
X074000Y-043000
X074000Y-044000
X074000Y-045000
X074000Y-046000
X074000Y-047000
X074000Y-048000
X074000Y-049000
X074000Y-050000
X074000Y-051000
X074000Y-052000
X074000Y-053000
X074000Y-054000
X074000Y-055000
X074000Y-056000
X075000Y-030000
X075000Y-031000
X075000Y-032000
X075000Y-033000
X075000Y-034000
X075000Y-035000
X075000Y-036000
X075000Y-037000
X075000Y-039000
X076000Y-041000
X076000Y-042000
X076000Y-043000
X076000Y-044000
X076000Y-045000
X076000Y-046000
X076000Y-047000
X076000Y-048000
X076000Y-049000
X076000Y-050000
X076000Y-051000
X076000Y-052000
X076000Y-053000
X076000Y-054000
X076000Y-055000
X076000Y-056000
X077000Y-039000
X078000Y-030000
X078000Y-031000
X078000Y-032000
X078000Y-033000
X078000Y-034000
X078000Y-035000
X078000Y-036000
X078000Y-037000
X078000Y-058000
X079000Y-031000
X079000Y-032000
X079000Y-033000
X079000Y-034000
X079000Y-035000
X079000Y-036000
X079000Y-037000
X079000Y-039000
X080000Y-058000
X081000Y-039000
X082000Y-031000
X082000Y-032000
X082000Y-033000
X082000Y-034000
X082000Y-035000
X082000Y-036000
X082000Y-037000
X082000Y-041000
X082000Y-042000
X082000Y-043000
X082000Y-044000
X082000Y-045000
X082000Y-046000
X082000Y-047000
X082000Y-048000
X082000Y-049000
X082000Y-050000
X082000Y-051000
X082000Y-052000
X082000Y-053000
X082000Y-054000
X082000Y-055000
X082000Y-056000
X083000Y-031000
X083000Y-032000
X083000Y-033000
X083000Y-034000
X083000Y-035000
X083000Y-036000
X083000Y-037000
X083000Y-039000
X083000Y-041000
X083000Y-042000
X083000Y-043000
X083000Y-044000
X083000Y-045000
X083000Y-046000
X083000Y-047000
X083000Y-049000
X083000Y-052000
X083000Y-053000
X083000Y-054000
X084000Y-050000
X084000Y-051000
X085000Y-039000
X085000Y-049000
X085000Y-050000
X085000Y-051000
X086000Y-031000
X086000Y-032000
X086000Y-033000
X086000Y-034000
X086000Y-035000
X086000Y-036000
X086000Y-037000
X086000Y-041000
X086000Y-042000
X086000Y-043000
X086000Y-044000
X086000Y-045000
X086000Y-046000
X086000Y-047000
X086000Y-052000
X086000Y-053000
X086000Y-054000
T4
X084362Y-025000
X085984Y-056115
X085984Y-057887
T5
X021000Y-042000
X021000Y-043000
X021000Y-044000
X021000Y-045000
X021000Y-046000
X021000Y-047000
X021000Y-048000
X021000Y-049000
X021000Y-050000
X021000Y-051000
X021000Y-052000
X021000Y-053000
X021000Y-054000
X021000Y-055000
X021000Y-056000
X021000Y-057000
X022000Y-041000
X022000Y-042000
X022000Y-043000
X022000Y-044000
X022000Y-045000
X022000Y-046000
X022000Y-047000
X022000Y-048000
X022000Y-049000
X022000Y-050000
X022000Y-051000
X022000Y-052000
X022000Y-053000
X022000Y-054000
X022000Y-055000
X022000Y-056000
X022000Y-057000
X029000Y-037000
X029000Y-038000
X038000Y-058000
X039000Y-058000
X040000Y-058000
X042000Y-058000
X043000Y-058000
X044000Y-058000
X050000Y-057000
X050000Y-058000
X051000Y-057000
X051000Y-058000
X052000Y-057000
X052000Y-058000
X053000Y-057000
X053000Y-058000
X054000Y-057000
X054000Y-058000
X055000Y-057000
X055000Y-058000
X056000Y-057000
X056000Y-058000
X057000Y-057000
X057000Y-058000
X058000Y-057000
X058000Y-058000
X059000Y-057000
X059000Y-058000
X060000Y-057000
X060000Y-058000
X061000Y-057000
X061000Y-058000
X062000Y-057000
X062000Y-058000
X064000Y-022000
X065000Y-022000
X082000Y-058000
X083000Y-058000
T6
X023190Y-025380
X023190Y-026450
X023190Y-027540
X023190Y-028620
X024310Y-024840
X024310Y-025920
X024310Y-027000
X024310Y-028080
X024310Y-029160
T7
X076488Y-025000
T8
X085000Y-055623
X085000Y-058379
T9
X047244Y-021246
X047244Y-058254
X074803Y-021246
X074803Y-058254
T10
X023750Y-022080
X023750Y-031920
T2
X023000Y-035817G85X023000Y-036683
G05
X023748Y-038140G85X024614Y-038140
G05
X025441Y-035719G85X025441Y-036781
G05
T0
M30
